<svg id="Layer_1" data-name="Layer 1" xmlns="http://www.w3.org/2000/svg" viewBox="0 0 413.79 241.86"><defs><style>.cls-1{fill:#fff;}</style></defs><title>cake</title><path class="cls-1" d="M45.54,283.32l.44,1c7.62,17.59,44.23,80.86,45.77,83.53l1.78,3.06,3.53,0c35.31.37,340.33-10.07,353.31-10.51l6.53-.22-.58-6.52c-.22-2.38-.41-8.05-.71-15.76l-.13-4.06c-.31-8.05-.69-17.73-1.27-28-.41-7.31-.91-14.91-1.52-22.45-.68-8.19-1.47-16.27-2.46-23.76l-.05-1.79-1-1.24c-.6-.91-2.61-3.58-5.4-7.24a23.19,23.19,0,0,0,6.3-11c2.51-9.89-1.6-17.64-5.25-24.49-2.84-5.4-5.34-10.09-4.51-15.33l2.33-14.79-12.1,8.81a29.73,29.73,0,0,1-4.88,2.76c0-.38.1-.7.05-1.08-1.27-10.13-7.9-15.87-13.76-20.93-4.65-4-8.64-7.47-9.77-12.66L399,146.06,391,158.63c-.26.42-.69.79-1,1.18-.11-.21-.21-.43-.31-.63-2.87-5.42-5.35-10.08-4.54-15.33l2.33-14.78-12.07,8.81c-3.48,2.52-7.86,4.19-12,5.68l-4,1.43c-6.53,2.34-13.34,5.06-18.81,10.47C334.9,161,332.65,166.4,332,171c-84.53-.33-271.3-.2-283.79,4.25l-1.84,1L44,178l-.18,5.22c-.14,4.29-.43,14.8-.55,27.44-.2,5.18-.23,11.65-.1,19.27l.43,7L44,258.94h0c.44,7.66,1,16.17,1.27,20.47Zm396.29,23.2c.56,10.1.95,19.62,1.26,27.56-85.92,0-260.88,5.37-346.41,5.22-7.9-10.65-23.46-38.76-39.55-68.86-.27-4.22-.57-9-.79-13.47s-.38-9.59-.48-14.64c16.55,31.64,32.37,63,40,72.88,85.43.16,260-8.81,346-9C441.82,306.29,441.82,306.42,441.83,306.52Zm-1.52-22.59c-86,.22-259.35,9.36-344.76,9.21C88.05,283.45,72,253,55.5,222c0-4.14,0-7.9.16-11.1.08-6,.17-11.38.25-16,15.43,30.85,31,65,38.67,75,85.12.16,256-9.15,342.21-9.46.45.6.95,1.27,1.28,1.79C438.94,269,439.67,276.38,440.31,283.93Zm-2.2-48.58a10.53,10.53,0,0,1-2.11,4,11.67,11.67,0,0,1-4.9,3.55c-.46.19-.92.37-1.4.52.28-.38.63-.74.91-1.14,0-.07.1-.13.14-.19a17.6,17.6,0,0,0,1.65-3.27,13.67,13.67,0,0,0,.83-3,1.18,1.18,0,0,0,.06-.27,13.89,13.89,0,0,0,.28-3,12.63,12.63,0,0,0-.19-2.48,10.27,10.27,0,0,0-.42-1.87c-.3-1-.51-1.57-.51-1.57s-.05.58-.12,1.64a12.48,12.48,0,0,1-.21,1.8,16.89,16.89,0,0,1-.39,2.31,10.06,10.06,0,0,0-.34,1.14A9.66,9.66,0,0,1,431,235a28.69,28.69,0,0,1-1.19,2.71,13,13,0,0,1-1.25,2c-.12.21-.24.42-.35.63a18.13,18.13,0,0,1-2.1,2.44,13.71,13.71,0,0,1-1.61,1.43h-.17a30.57,30.57,0,0,1-11.25-2,28.36,28.36,0,0,1-8.31-4.8c0-.11,0-.19,0-.3.21-1,.66-2,.93-3a21.1,21.1,0,0,1,1.16-3.15c.45-1.06.9-2.13,1.34-3.2.38-.64.73-1.24,1.07-1.89a40.46,40.46,0,0,1,2.3-4.11c.36-.51.66-1,1-1.51a11.29,11.29,0,0,1,.74-1.18c.48-.6.87-1.19,1.29-1.75.14-.18.27-.37.38-.54a17.15,17.15,0,0,1,1.31-1.74c.56-.66,1.08-1.25,1.41-1.74l1.05-1.34-1.47.86c-.49.35-1.15.74-1.84,1.21a11.3,11.3,0,0,0-1.76,1.42c-.7.63-1.46,1.33-2.22,2.11a4.67,4.67,0,0,0-.57.68c-.51.56-1,1.14-1.51,1.76a.71.71,0,0,1-.1.14,20.83,20.83,0,0,0-2.1,2.94c0,.06,0,.11-.06.15-.59,1-1.18,2.08-1.77,3.14s-.94,2.34-1.38,3.49a16.34,16.34,0,0,0-1,3.51c-.12.68-.2,1.31-.31,2a12,12,0,0,1-3-5.16c-.51-2.39.2-4.94,1.92-7.57a20.23,20.23,0,0,1,2.45-3c.16-.19.3-.37.48-.56a22,22,0,0,1,4.31-3.21,44.34,44.34,0,0,1,5.74-2.82c1.35-.54,2.72-1,4.12-1.55l3.42-1.21.69-.25c1.9-.68,3.91-1.43,6-2.28a55.92,55.92,0,0,0,5.22,12.05C437.33,226.12,439.37,230.32,438.11,235.35Zm-57.29-66.21c-.21.16-.39.35-.61.52l-2.91,2.54a1.35,1.35,0,0,0-.09-.26s0,.15,0,.39c-.22.2-.46.41-.69.59-1.59,1.42-3.13,2.89-4.58,4.45a40.33,40.33,0,0,0-4.58,5.91,29.74,29.74,0,0,0-2.48,4.35c-.23.52-.38,1-.56,1.5a33,33,0,0,1-6.48-1.65,28.37,28.37,0,0,1-7.94-4.54c-.11-.1-.27-.17-.37-.26l.06-.29c.19-1,.67-2,.91-3,.26-.88.6-1.76.95-2.63.09-.17.13-.36.21-.53.45-1,.92-2.12,1.37-3.19.36-.66.73-1.26,1.08-1.94a42.16,42.16,0,0,1,2.26-4c.64-.91,1.09-1.91,1.73-2.68s1.12-1.58,1.65-2.32c1-1.51,2.1-2.59,2.73-3.47l1-1.34-1.47.86a22.65,22.65,0,0,0-3.6,2.63c-.7.63-1.46,1.31-2.22,2.09a28.77,28.77,0,0,0-2.18,2.6,20.82,20.82,0,0,0-2.08,3c-.51.89-1,1.8-1.54,2.7-.11.18-.22.38-.31.56-.45,1.19-.94,2.33-1.38,3.49a9.71,9.71,0,0,0-.44,1.6c-.16.65-.39,1.29-.53,1.93s-.22,1.3-.31,2a12.94,12.94,0,0,1-2.46-3.92,8.35,8.35,0,0,1-.53-1.25,8.26,8.26,0,0,1,.36-4.4,17.06,17.06,0,0,1,4.46-6.75c3.66-3.62,8.81-5.66,14.24-7.61l4-1.41c1.93-.7,3.94-1.44,6-2.32A57.91,57.91,0,0,0,378.7,165C379.5,166.5,380.21,167.83,380.82,169.14Zm14.35,4.78a60.24,60.24,0,0,0,8.71,8.77c5.53,4.76,8.94,7.93,9.58,13.1a10.91,10.91,0,0,1-.42,4.47c-1.24.45-2.47.9-3.69,1.43,0-.2.06-.4,0-.59a13.89,13.89,0,0,0-.33-3.36,15,15,0,0,0-.85-2.91,16.34,16.34,0,0,0-1.08-2.25,9.5,9.5,0,0,0-1.08-1.59l-1-1.27.44,1.56a10.74,10.74,0,0,1,.49,1.77,20.07,20.07,0,0,1,.47,2.27c.06.85.22,1.74.22,2.7a18.33,18.33,0,0,1-.1,2.94,12.78,12.78,0,0,1-.4,2.12v0a47.52,47.52,0,0,0-5.5,3.09,32.19,32.19,0,0,0-4.71,3.79l-.18.15c-.28.29-.48.55-.76.83-.81.06-1.61.2-2.43.23a28.85,28.85,0,0,1-9.48-1.47c0-.09,0-.19-.06-.3-.16-1-.11-2.07-.23-3.15a20.52,20.52,0,0,1-.08-3.34c0-1.15.09-2.32.11-3.48,0-.29.09-.55.13-.82.11-1,.29-2,.4-3s.21-2.06.44-3c.19-.79.3-1.58.44-2.36.06-.25.09-.54.16-.77.11-.38.19-.74.29-1.11.16-.55.31-1.11.42-1.65.34-1.74,1-3.18,1.31-4.21.09-.34.17-.56.22-.79a8.18,8.18,0,0,1,.25-.85l-.48.61-.57.74a21.16,21.16,0,0,0-2.4,3.76,7.05,7.05,0,0,0-.35.73c-.34.64-.65,1.28-1,2A28.41,28.41,0,0,0,381,192a8.86,8.86,0,0,1-.21.89h0a12.83,12.83,0,0,0-.66,2.63c-.18,1.22-.37,2.47-.55,3.7v1c0,.91,0,1.82,0,2.73a15.51,15.51,0,0,0,.38,3.62c.12.69.27,1.3.4,1.95a12.06,12.06,0,0,1-4.65-3.73,8.22,8.22,0,0,1-1.17-3.36,14.12,14.12,0,0,1,.79-6.45,23.78,23.78,0,0,1,.82-2.36,22.51,22.51,0,0,1,1.7-2.91,30.53,30.53,0,0,1,3.7-4.54c1.36-1.4,2.83-2.76,4.38-4.1.78-.68,1.55-1.37,2.36-2.05.33-.29.65-.62,1-.89,1.81-1.56,3.65-3.12,5.39-4.83C394.83,173.55,395,173.71,395.17,173.92Z" transform="translate(-43.1 -129.07)"/></svg>