<svg id="Layer_1" data-name="Layer 1" xmlns="http://www.w3.org/2000/svg" viewBox="0 0 404.51 362.8"><defs><style>.cls-1{fill:#fff;}</style></defs><title>cookies</title><path class="cls-1" d="M203.36,228.62l-1.22.29c-8,1.76-12.13,8.48-4.63,14,6.25,4.57,19.29,1.35,25.43-3.19,2.84-2.13,4-5,2.7-8.56C222.88,223.86,209.79,227.14,203.36,228.62Z" transform="translate(-47.74 -68.6)"/><path class="cls-1" d="M385.33,248.41a12.31,12.31,0,0,1,1.11,6.55c-3,24.25-41.63,22.49-50.61,3.92-4.26-8.79,3.67-16.09,11.11-20.27s16.85-3.81,24.87-1.68A22.5,22.5,0,0,1,385.33,248.41Z" transform="translate(-47.74 -68.6)"/><path class="cls-1" d="M201.15,289c7.1-.12,18.72-1.39,23.15,5.72,7.59,12.17-11.82,14.22-19.74,14.6-5,.24-11.6-.21-15-4.52a10.14,10.14,0,0,1-2-7.23c.54-5.5,7.22-8.17,12-8.51C200,289,200.49,289,201.15,289Z" transform="translate(-47.74 -68.6)"/><path class="cls-1" d="M233.17,271.46c3.55-1.84,21.2-3.26,21.28,5.65-.76,11.59-36.91,17.14-26.93-1Z" transform="translate(-47.74 -68.6)"/><path class="cls-1" d="M351.12,337.79c1.82,6.35,8.75,6.89,14.66,6.78,11.05-.2,30.58-10.57,19.83-23.51-9.57-11.57-37.16.95-34.75,15.54C350.92,337,351,337.42,351.12,337.79Z" transform="translate(-47.74 -68.6)"/><path class="cls-1" d="M330.09,190.49a19.13,19.13,0,0,1,4.24-2.73c6.59-2.88,28-6.33,20.31,7-3.75,6.49-14,10.52-21.22,9.06C324.78,202.11,323.5,196.05,330.09,190.49Z" transform="translate(-47.74 -68.6)"/><path class="cls-1" d="M238.4,191.87c.2,1.62,1.33,3.27,3.75,4.84,5.8,3.78,11.39,2.79,17.42.47,4.32-1.66,10-5,6.19-10.51C261,179.83,237,181,238.4,191.87Z" transform="translate(-47.74 -68.6)"/><path class="cls-1" d="M399.68,299c-2.36,6.16,7.19,6.34,11,4.11,8.61-5.88-1.42-11.78-8.59-7.37Z" transform="translate(-47.74 -68.6)"/><path class="cls-1" d="M266.73,379.15a30.07,30.07,0,0,0,8.78,0c7.53-1.35,20.94-2.1,21.31-12.4.31-8.74-9.26-11.82-16.28-11.58-7.82.29-21.6,4.59-24.92,12.39C252.46,374.91,259.62,378.21,266.73,379.15Z" transform="translate(-47.74 -68.6)"/><path class="cls-1" d="M222.26,176.51c1.31-.57,2.63-1.12,4-1.67.16-.69.35-1.39.48-2.09a63.45,63.45,0,0,0,1.06-14.1q-5.72,2.11-11.3,4.53c-31.73,13.82-56.26,38.41-69,68.15a113.25,113.25,0,0,0,17.39-2.64C176.92,206.08,197,187.51,222.26,176.51Z" transform="translate(-47.74 -68.6)"/><path class="cls-1" d="M450.71,265.92c-7.13-46.5-46-92.66-92.46-109.77a175.7,175.7,0,0,0-60.55-10.61,202.53,202.53,0,0,0-61.39,10.14,76.42,76.42,0,0,1-.49,15.51,191.31,191.31,0,0,1,62.5-11.1h0a160.27,160.27,0,0,1,54.87,9.71c41.8,15.39,76.75,56.75,83.11,98.33,5.4,35.08-5.28,70.26-30,99.08-34.24,39.87-89.53,58.45-136.82,45.25-37.28-10.41-67-27.86-88.39-51.82-21.51-24.11-33.28-69.05-26.8-102.3a105.64,105.64,0,0,1,5.92-19.79,115,115,0,0,1-16.17,1.73,118.41,118.41,0,0,0-4,15.28c-7.25,37.22,6,87.63,30.23,114.77,23.27,26.08,55.32,45,95.33,56.14a134.37,134.37,0,0,0,36.14,4.93c43,0,86.21-20.46,115.62-54.71C444.92,344.6,456.76,305.26,450.71,265.92Z" transform="translate(-47.74 -68.6)"/><path class="cls-1" d="M140.07,231.6h0a96.16,96.16,0,0,1-33-5.9c-25.09-9.3-46-34.19-49.81-59.18-3.2-21.08,3.26-42.2,18.14-59.49,20.62-23.91,53.86-35,82.25-27,22.39,6.31,40.24,16.82,53,31.25,10,11.3,16.51,30.17,17,47.39,2.83-1,5.68-2,8.55-3-1.22-18.48-8.33-38.16-19.05-50.23-13.95-15.7-33.18-27.08-57.2-33.85a80.91,80.91,0,0,0-21.71-3c-25.83,0-51.82,12.18-69.53,32.73-16.6,19.25-23.76,42.87-20.17,66.51,4.23,27.94,27.52,55.72,55.41,66a105.26,105.26,0,0,0,36.37,6.45c1.2,0,2.42,0,3.64-.06,1-3,2.17-6,3.42-8.95C145,231.51,142.52,231.61,140.07,231.6Z" transform="translate(-47.74 -68.6)"/><path class="cls-1" d="M164.88,228.69a113.25,113.25,0,0,1-17.39,2.64c-1.25,2.94-2.4,5.92-3.42,8.95a115,115,0,0,0,16.17-1.73Q162.31,233.51,164.88,228.69Z" transform="translate(-47.74 -68.6)"/><path class="cls-1" d="M226.7,172.75c-.13.7-.32,1.4-.48,2.09q4.75-1.93,9.6-3.65a76.42,76.42,0,0,0,.49-15.51c-2.87.93-5.72,1.93-8.55,3A63.45,63.45,0,0,1,226.7,172.75Z" transform="translate(-47.74 -68.6)"/><path class="cls-1" d="M87.91,178.43a7.29,7.29,0,0,1-.66-3.93c1.85-14.57,25-13.46,30.41-2.3,2.55,5.29-2.23,9.67-6.7,12.17s-10.13,2.27-14.94,1A13.5,13.5,0,0,1,87.91,178.43Z" transform="translate(-47.74 -68.6)"/><path class="cls-1" d="M198.61,154.29c-4.27.07-11.25.81-13.91-3.46-4.54-7.33,7.12-8.53,11.88-8.75,3-.14,7,.14,9,2.73a6.09,6.09,0,0,1,1.19,4.35c-.33,3.3-4.35,4.9-7.23,5.09C199.33,154.27,199,154.28,198.61,154.29Z" transform="translate(-47.74 -68.6)"/><path class="cls-1" d="M179.35,164.77c-2.14,1.1-12.74,1.93-12.78-3.42.47-7,22.19-10.25,16.18.61Z" transform="translate(-47.74 -68.6)"/><path class="cls-1" d="M108.57,124.78c-1.09-3.82-5.25-4.15-8.8-4.09-6.64.1-18.38,6.31-12,14.1,5.74,7,22.33-.53,20.9-9.29A6.5,6.5,0,0,0,108.57,124.78Z" transform="translate(-47.74 -68.6)"/><path class="cls-1" d="M121,213.3a11,11,0,0,1-2.55,1.63c-4,1.73-16.84,3.78-12.19-4.25,2.26-3.89,8.43-6.31,12.76-5.42C124.23,206.32,125,210,121,213.3Z" transform="translate(-47.74 -68.6)"/><path class="cls-1" d="M79.35,148c1.42-3.69-4.32-3.81-6.61-2.48-5.18,3.52.84,7.08,5.15,4.44Z" transform="translate(-47.74 -68.6)"/><path class="cls-1" d="M159.32,100a18.17,18.17,0,0,0-5.28,0c-4.52.8-12.58,1.24-12.82,7.43-.19,5.25,5.56,7.11,9.77,7,4.7-.16,13-2.73,15-7.41C167.88,102.59,163.58,100.61,159.32,100Z" transform="translate(-47.74 -68.6)"/></svg>