<svg id="Layer_1" data-name="Layer 1" xmlns="http://www.w3.org/2000/svg" viewBox="0 0 354.71 434.04"><defs><style>.cls-1{fill:#fff;stroke:#fff;stroke-miterlimit:10;}</style></defs><title>cupcake</title><path class="cls-1" d="M413.26,298.11a7.58,7.58,0,0,0-9.9,2.76c-1.7,2.72-5.81,7.49-11,7.5-.72-.33-1.16-.64-1.79-1,1-6.41,1.79-12.65,2.23-18.54a69.9,69.9,0,0,0,18.92-12.74c10.17-9.47,18.38-29.76,13.9-46a27.66,27.66,0,0,0-15-18c4-14.8,1.2-32.14-7.75-46.19-8.79-13.83-22-22-36.45-22.47,1.42-12.91-1.66-24.75-8.83-34C349.61,97.89,323.36,84,306,85.91c-2.11-19.58-10.79-40-30.08-47.69-7.54-3.1-18-4.79-29.38-4.75-18.55.06-34.94,4.61-43.85,12.14a7.62,7.62,0,0,0,8,12.8,25.06,25.06,0,0,1,8.79-1.29c6.6,0,12.12,1.48,13.94,2.84,2.57,2,3.25,3.45,3.23,3.94,0,2.84-7.58,8.67-11.68,11.82l-2,1.48c-6.88,5.21-19.18,10-32.18,15.08-27.26,10.63-60.67,23.66-64.55,50.23-11.11,2.89-20.72,10.84-27,22.5s-8,24.8-5,36.14c-8.81,3.95-15.48,12.29-18.9,24-5.24,18-1.72,43.41,13.23,54.87a42.88,42.88,0,0,0,9.26,5.09,83.92,83.92,0,0,0,3.26,16.8c-8.62.52-11.66-4.73-12-5.65a7.69,7.69,0,0,0-9.78-4.56,7.62,7.62,0,0,0-4.55,9.76s0,0,0,0C131,457.18,139,460.52,142.48,462c9.21,3.79,101.27,4.67,133.73,4.55,23.8-.09,56-.54,74.5-2.3a7.74,7.74,0,0,0,6.4-4.79l59.83-151.72A7.62,7.62,0,0,0,413.26,298.11ZM149.39,448.05c-7.3-10.94-32.68-76.47-52.62-130.77a34.85,34.85,0,0,0,7.74-.23c.55-.08.92-.25,1.45-.33,5.19-.9,9.32-2.38,12.28-4.35a26.4,26.4,0,0,0,4,3.15c.93,3.78,2.08,9.07,3.7,15.39s3.88,13.85,6.31,21.77,5.14,16.41,8,24.8S146.09,394.16,149,402c1.67,4.62,3.31,9,4.92,13.07,1.08,2.81,2.17,5.58,3.14,8.1,2.4,6.19,4.6,11.27,6,14.87s2.4,5.6,2.4,5.6-.6-2.13-1.67-5.86-2.6-9.05-4.64-15.36c-.56-1.75-1.19-3.75-1.81-5.63-1.58-5-3.25-10.25-5.07-16-2.55-7.88-5.41-16.24-8.25-24.59s-5.7-16.69-8.39-24.52c-1.39-3.88-2.73-7.65-4-11.22s-2.47-7-3.48-10.15c-1.86-5.82-3.57-10.57-4.81-14.19a32.24,32.24,0,0,0,13.25,4.26c9.86,1.08,16.17-1.65,20.42-5.38.61.54,1.48,1.07,2.17,1.61.67,3.6,1.44,7.93,2.56,13.2,1.37,6.56,2.87,14.2,4.69,22.38s3.82,16.84,5.87,25.53,4.3,17.33,6.44,25.4c2,7.89,4.16,15.19,5.9,21.54,0,.16.11.36.15.54,1.76,6.48,3.49,11.81,4.56,15.57l1.84,5.89s-.38-2.21-1.07-6-1.69-9.18-3.08-15.6c0-.1,0-.15,0-.25-1.41-6.54-2.94-14.18-4.8-22.33s-3.94-16.86-6-25.55-4.22-17.32-6.33-25.44-4.21-15.62-5.93-22.1c-1.25-4.62-2.36-8.39-3.34-11.7a39.74,39.74,0,0,0,9.82,5.29c9.94,3.68,20.05-.86,25.58-5.76,0,0,.07.05.1.07,0,.37.05.56.09,1,.42,3.68.89,9,1.71,15.31s1.69,13.73,2.81,21.62,2.41,16.28,3.71,24.66,2.77,16.79,4.2,24.62,2.9,15.12,4.06,21.39c.16.76.29,1.34.42,2.1,1.07,5.24,2.1,9.77,2.74,12.95.84,3.62,1.32,5.71,1.32,5.71s-.19-2.13-.54-5.86c-.39-3.12-.79-7.61-1.42-12.69-.11-.91-.18-1.68-.3-2.64-.85-6.33-1.69-13.72-2.83-21.6s-2.41-16.27-3.71-24.65-2.76-16.76-4.19-24.59-2.89-15.14-4.07-21.39-2.41-11.44-3.15-15.05c0-.15,0-.19-.07-.31A32.57,32.57,0,0,0,213,324.34c.28,0,1.93.13,2.19.11,6.68,0,12.17-3.33,16.23-7.31.16.13.44.2.6.34,0,.92.11,2.31.19,4.49.23,3.54.41,8.68.9,14.81s.95,13.26,1.68,20.9,1.54,15.78,2.41,23.93,1.88,16.23,2.89,23.86,2.09,14.7,2.92,20.78c.11.71.21,1.27.32,2,.76,5.15,1.55,9.58,2,12.7.65,3.53,1,5.55,1,5.55s-.08-2-.23-5.63c-.2-3.14-.39-7.58-.77-12.71,0-.74-.09-1.34-.13-2.1-.51-6.13-1-13.27-1.68-20.92s-1.56-15.77-2.4-23.92-1.9-16.25-2.9-23.86-2.09-14.7-2.93-20.78-1.81-11.12-2.37-14.67c-.36-2-.62-3.35-.79-4.29a28.49,28.49,0,0,0,13,4.88c8.76,1.11,15.48-2.45,20.23-6.9.49.36,1.1.69,1.65,1,0,.48,0,.76-.05,1.33,0,3.67-.22,8.92-.17,15.22s0,13.67.18,21.53.4,16.26.68,24.66.68,16.76,1.16,24.63,1,15.18,1.43,21.48c0,.51.08.91.11,1.38.4,5.62.93,10.44,1.2,13.8.38,3.66.6,5.76.6,5.76s.07-2.11.16-5.8c0-3.39.19-8.23.17-13.88,0-.49,0-.85,0-1.34-.07-6.29,0-13.65-.18-21.52s-.39-16.27-.68-24.64-.7-16.79-1.16-24.65-1-15.2-1.43-21.47-1-11.53-1.31-15.18c0-.41-.05-.56-.09-.94a33.71,33.71,0,0,0,6.93,3.26c8.81,2.94,18.6-1.36,24.41-5.86-.1.93-.2,1.95-.36,3.42-.3,3.67-.89,8.89-1.29,15.18s-1.05,13.62-1.46,21.47-.93,16.24-1.1,24.65-.24,16.82-.21,24.69c0,7.63.16,14.73.24,20.9v.63c.07,6.31.36,11.55.47,15.22s.28,5.77.28,5.77.17-2.1.5-5.77.71-8.9,1-15.22c0-.27,0-.62.06-.9.28-6.09.72-13.06,1-20.56.31-7.87.5-16.26.7-24.63s.51-16.77.58-24.66.14-15.22.2-21.52-.13-11.56-.15-15.22c0-1.43-.07-2.43-.1-3.36A46,46,0,0,0,311.79,321c9.63,3.51,19.18-1,24.6-6.16.32.33.73.64,1.08,1-.18.6-.27,1-.48,1.71-.91,3.63-2.36,8.77-3.83,15-.71,3.13-1.61,6.51-2.32,10.1s-1.54,7.37-2.26,11.3c-1.54,7.85-3,16.26-4.54,24.64-1.34,8.42-2.69,16.85-3.81,24.77-1,6.61-1.75,12.71-2.49,18.28-.15,1.11-.29,2.33-.43,3.38-.86,6.34-1.34,11.65-1.8,15.36l-.55,5.86,1.32-5.71c.75-3.66,2-8.88,3.23-15.15.26-1.28.57-2.79.84-4.16,1-5.32,2.21-11,3.33-17.29,1.48-7.85,2.88-16.26,4.29-24.66s2.86-16.8,4.06-24.69c.65-3.94,1.17-7.78,1.7-11.4s1.11-7,1.64-10.18c1.11-6.28,1.79-11.59,2.39-15.27.08-.64.12-1,.2-1.49,4.34,4,10.27,7.59,17.79,7.7,8.21,0,15-4.22,19.59-8.21.13.11.33.24.48.35-.11.31-.71,2-1.86,5.22-1.18,3.5-3,8.45-4.93,14.51s-4.32,13.06-6.26,20.73-4.14,15.84-6.23,24-4.05,16.31-5.8,24c-.9,3.54-1.57,7-2.37,10.3-.08.25-.12.56-.19.82l-2.58,9.88c-1.61,6.14-2.72,11.3-3.6,14.9s-1.27,5.67-1.27,5.67.72-2,2-5.45,3-8.44,5-14.46c1.28-3.87,2.7-8.26,4.1-12.89.77-2.53,1.56-5.08,2.24-7.81,2.1-7.66,4.22-15.82,6.33-24s4-16.4,5.77-24.1c.86-3.85,1.72-7.58,2.52-11.11s1.71-6.83,2.48-9.88c1.57-6.13,2.64-11.29,3.51-14.9.7-3.31,1.08-5.09,1.16-5.43a46.25,46.25,0,0,0,10.22,6.19c.52.23,1.07.3,1.58.5a20.29,20.29,0,0,0,6.46,1.17L344.65,449.39c-14.7,1.1-38.69,1.75-68.49,1.86C217.77,451.45,159.81,449.63,149.39,448.05ZM90.06,229.45c1.59-5.46,5.67-14.76,15.08-15.57a7.48,7.48,0,0,0,4.84-2.61A74.7,74.7,0,0,0,123.54,222c11.91,7.43,25.42,11.61,40,15.41,35.29,9.2,73.18,4.52,110.83-11.1,26.88-11.14,32.12-14.26,55.88-30.88.06,0,.09-.07.14-.09,12.17-8.74,19.66-19.61,24.52-36.14a7.43,7.43,0,0,0,3.8.15c12.08-2.73,23.79,2.83,31.36,14.7,7.73,12.17,9.33,28,3.94,39.42a7.35,7.35,0,0,0,2,9,180.48,180.48,0,0,1-15.59,15.16c-.45.41-1,.88-1.42,1.26-13.94,12.7-24.37,19.5-41.64,27.54C316,276.52,305,278.91,275.21,288c-2.15.65-4.59,1-6.88,1.48-43.2-.32-86.57-4.68-123.62-9.1-21.49-2.57-38.79-7.1-45.88-11.86-.28-.19-.64-.38-.89-.57C89.47,261.45,85.87,243.81,90.06,229.45Zm106.35-123c14-5.45,27.25-10.62,35.92-17.16l2-1.52c8.23-6.31,17.55-13.5,17.64-23.75,0-5.49-2.62-10.58-8.09-15.26,10.06-.35,20.09,1,26.38,3.58,15.82,6.26,21.24,27.69,21.07,44.13a7.49,7.49,0,0,0,3.1,5.86c-32.42,39.7-96.87,57.35-152.47,41.29C145.79,126.43,172.42,115.85,196.41,106.47Zm-55.76,45.26c26.8,23,57.23,25.68,100.1,7.29,13-5.6,43.33-22.46,55.62-55.45a7.51,7.51,0,0,0,7.36-1.1c1.2-1,3.25-1.48,5.92-1.49,12.75,0,30.82,10.5,35.65,17.49,6.31,8.11,7.86,19.25,4.38,31.34a7.58,7.58,0,0,0,1.77,7.36,7.2,7.2,0,0,0,1.51.93c-11,16.8-12.57,18.05-26.88,28.86-1.54,1.14-3.33,2.22-5.06,3.31-19.69,12.51-49.76,22.58-71.14,27.12-47.32,10-83.89,6.16-117.12-2.77-7.17-1.92-14.18-4.08-21.12-6.41a7.49,7.49,0,0,0-.46-5.6c-4.56-8.25-3.94-20.17,1.54-30.35,5-9.31,12.83-15,21.46-15.68A7.62,7.62,0,0,0,140.65,151.73ZM337.78,285.82l-3.48.39c19.6-8.74,37.45-22.95,52.94-37,1.93-1.75,4-3.52,5.85-5.26,5.48-5.52,8.25-11.34,8.44-19,5,1.62,8.08,4.54,9.36,9.21,2.7,9.82-2.94,24.63-9.69,30.9a49.91,49.91,0,0,1-8.21,6.3C377.54,281.24,357.4,283.61,337.78,285.82Z" transform="translate(-72.63 -32.97)"/></svg>